PathFileType	4	(X/Y/Z)	C:\Users\italobelli\Desktop\GitHub\PTbot_officialCBL\Personal_Results\FLX21_noisy1.trc
DataRate	CameraRate	NumFrames	NumMarkers	Units	OrigDataRate	OrigDataStartFrame	OrigNumFrames
107.000000	107.000000	51	9	m	107.000000	657	750
Frame#	Time		gu		centelbow		EpL		centpxt8		centijc7		ij		ts		aa		ai
			X1	Y1	Z1	X2	Y2	Z2	X3	Y3	Z3	X4	Y4	Z4	X5	Y5	Z5	X6	Y6	Z6	X7	Y7	Z7	X8	Y8	Z8	X9	Y9	Z9

657	6.1308	-0.076457	-0.016574	0.16256	-0.14493	-0.25925	0.17962	-0.1296	-0.25737	0.20789	-0.046816	-0.15316	-0.008669	-0.046816	0.031938	-0.008669	0	0	0	-0.13149	0.03238	0.052165	-0.10186	0.020317	0.16697	-0.15291	-0.079103	0.051392
658	6.1402	-0.076527	-0.0166	0.16258	-0.14483	-0.25942	0.17978	-0.1295	-0.25753	0.20805	-0.046816	-0.15316	-0.008669	-0.046816	0.031938	-0.008669	0	0	0	-0.13152	0.032347	0.052171	-0.10192	0.020282	0.16699	-0.15292	-0.079139	0.051387
659	6.1495	-0.076597	-0.016627	0.16259	-0.14473	-0.25959	0.17995	-0.1294	-0.25769	0.20822	-0.046816	-0.15316	-0.008669	-0.046816	0.031938	-0.008669	0	0	0	-0.13154	0.032313	0.052177	-0.10197	0.020247	0.167	-0.15292	-0.079177	0.051382
660	6.1589	-0.076665	-0.016655	0.16261	-0.14462	-0.25977	0.18012	-0.12931	-0.25785	0.2084	-0.046816	-0.15316	-0.008669	-0.046816	0.031938	-0.008669	0	0	0	-0.13156	0.032278	0.052184	-0.10203	0.02021	0.16702	-0.15293	-0.079214	0.051377
661	6.1682	-0.076733	-0.016683	0.16262	-0.14452	-0.25994	0.18029	-0.12921	-0.25801	0.20857	-0.046816	-0.15316	-0.008669	-0.046816	0.031938	-0.008669	0	0	0	-0.13159	0.032243	0.052191	-0.10209	0.020172	0.16703	-0.15294	-0.079253	0.051372
662	6.1776	-0.0768	-0.016712	0.16264	-0.14441	-0.26012	0.18047	-0.12911	-0.25818	0.20875	-0.046816	-0.15316	-0.008669	-0.046816	0.031938	-0.008669	0	0	0	-0.13161	0.032207	0.052198	-0.10214	0.020133	0.16705	-0.15294	-0.079291	0.051367
663	6.1869	-0.076867	-0.016742	0.16266	-0.1443	-0.2603	0.18064	-0.129	-0.25834	0.20893	-0.046816	-0.15316	-0.008669	-0.046816	0.031938	-0.008669	0	0	0	-0.13163	0.03217	0.052205	-0.1022	0.020093	0.16706	-0.15295	-0.079331	0.051362
664	6.1963	-0.076932	-0.016772	0.16267	-0.14419	-0.26048	0.18082	-0.1289	-0.25851	0.2091	-0.046816	-0.15316	-0.008669	-0.046816	0.031938	-0.008669	0	0	0	-0.13165	0.032133	0.052212	-0.10225	0.020052	0.16708	-0.15295	-0.07937	0.051357
665	6.2056	-0.076996	-0.016803	0.16269	-0.14408	-0.26066	0.18099	-0.1288	-0.25868	0.20928	-0.046816	-0.15316	-0.008669	-0.046816	0.031938	-0.008669	0	0	0	-0.13168	0.032096	0.05222	-0.1023	0.020011	0.1671	-0.15296	-0.07941	0.051352
666	6.215	-0.07706	-0.016834	0.16271	-0.14397	-0.26084	0.18117	-0.1287	-0.25884	0.20946	-0.046816	-0.15316	-0.008669	-0.046816	0.031938	-0.008669	0	0	0	-0.1317	0.032059	0.052227	-0.10236	0.019969	0.16711	-0.15296	-0.07945	0.051347
667	6.2243	-0.077122	-0.016866	0.16272	-0.14386	-0.26102	0.18135	-0.12859	-0.25901	0.20965	-0.046816	-0.15316	-0.008669	-0.046816	0.031938	-0.008669	0	0	0	-0.13172	0.032021	0.052235	-0.10241	0.019926	0.16713	-0.15297	-0.07949	0.051342
668	6.2336	-0.077183	-0.016897	0.16274	-0.14375	-0.26121	0.18153	-0.12849	-0.25918	0.20983	-0.046816	-0.15316	-0.008669	-0.046816	0.031938	-0.008669	0	0	0	-0.13174	0.031983	0.052243	-0.10246	0.019883	0.16715	-0.15298	-0.079531	0.051338
669	6.243	-0.077243	-0.016929	0.16276	-0.14364	-0.26139	0.1817	-0.12839	-0.25935	0.21001	-0.046816	-0.15316	-0.008669	-0.046816	0.031938	-0.008669	0	0	0	-0.13176	0.031945	0.052251	-0.1025	0.01984	0.16717	-0.15298	-0.079571	0.051333
670	6.2523	-0.077303	-0.016961	0.16277	-0.14353	-0.26157	0.18188	-0.12828	-0.25952	0.21019	-0.046816	-0.15316	-0.008669	-0.046816	0.031938	-0.008669	0	0	0	-0.13178	0.031906	0.052259	-0.10255	0.019796	0.16718	-0.15299	-0.079612	0.051329
671	6.2617	-0.077361	-0.016993	0.16279	-0.14342	-0.26176	0.18206	-0.12818	-0.25968	0.21037	-0.046816	-0.15316	-0.008669	-0.046816	0.031938	-0.008669	0	0	0	-0.1318	0.031868	0.052267	-0.1026	0.019752	0.1672	-0.15299	-0.079652	0.051324
672	6.271	-0.077417	-0.017025	0.16281	-0.14331	-0.26194	0.18223	-0.12808	-0.25985	0.21055	-0.046816	-0.15316	-0.008669	-0.046816	0.031938	-0.008669	0	0	0	-0.13182	0.03183	0.052275	-0.10264	0.019709	0.16722	-0.153	-0.079693	0.05132
673	6.2804	-0.077473	-0.017057	0.16282	-0.14321	-0.26212	0.18241	-0.12798	-0.26002	0.21072	-0.046816	-0.15316	-0.008669	-0.046816	0.031938	-0.008669	0	0	0	-0.13184	0.031792	0.052284	-0.10269	0.019665	0.16724	-0.153	-0.079733	0.051316
674	6.2897	-0.077527	-0.017089	0.16284	-0.1431	-0.2623	0.18258	-0.12788	-0.26018	0.2109	-0.046816	-0.15316	-0.008669	-0.046816	0.031938	-0.008669	0	0	0	-0.13186	0.031754	0.052292	-0.10273	0.019621	0.16725	-0.15301	-0.079773	0.051312
675	6.2991	-0.077581	-0.017121	0.16285	-0.143	-0.26248	0.18275	-0.12779	-0.26035	0.21108	-0.046816	-0.15316	-0.008669	-0.046816	0.031938	-0.008669	0	0	0	-0.13188	0.031716	0.0523	-0.10278	0.019578	0.16727	-0.15301	-0.079812	0.051308
676	6.3084	-0.077632	-0.017153	0.16287	-0.14289	-0.26265	0.18292	-0.12769	-0.26051	0.21125	-0.046816	-0.15316	-0.008669	-0.046816	0.031938	-0.008669	0	0	0	-0.1319	0.031679	0.052308	-0.10282	0.019535	0.16729	-0.15302	-0.079852	0.051304
677	6.3178	-0.077683	-0.017184	0.16289	-0.14279	-0.26283	0.18309	-0.1276	-0.26067	0.21142	-0.046816	-0.15316	-0.008669	-0.046816	0.031938	-0.008669	0	0	0	-0.13192	0.031642	0.052317	-0.10286	0.019493	0.16731	-0.15302	-0.07989	0.0513
678	6.3271	-0.077732	-0.017215	0.1629	-0.14269	-0.263	0.18326	-0.1275	-0.26083	0.21159	-0.046816	-0.15316	-0.008669	-0.046816	0.031938	-0.008669	0	0	0	-0.13193	0.031605	0.052325	-0.10289	0.019451	0.16732	-0.15302	-0.079929	0.051297
679	6.3364	-0.07778	-0.017246	0.16292	-0.1426	-0.26317	0.18342	-0.12741	-0.26098	0.21176	-0.046816	-0.15316	-0.008669	-0.046816	0.031938	-0.008669	0	0	0	-0.13195	0.031569	0.052333	-0.10293	0.01941	0.16734	-0.15303	-0.079967	0.051293
680	6.3458	-0.077826	-0.017276	0.16293	-0.1425	-0.26334	0.18358	-0.12733	-0.26114	0.21192	-0.046816	-0.15316	-0.008669	-0.046816	0.031938	-0.008669	0	0	0	-0.13197	0.031534	0.052341	-0.10297	0.019369	0.16736	-0.15303	-0.080004	0.05129
681	6.3551	-0.07787	-0.017305	0.16295	-0.14241	-0.26351	0.18374	-0.12724	-0.26129	0.21208	-0.046816	-0.15316	-0.008669	-0.046816	0.031938	-0.008669	0	0	0	-0.13198	0.031499	0.052349	-0.103	0.01933	0.16737	-0.15304	-0.080041	0.051287
682	6.3645	-0.077914	-0.017335	0.16296	-0.14232	-0.26367	0.18389	-0.12716	-0.26144	0.21224	-0.046816	-0.15316	-0.008669	-0.046816	0.031938	-0.008669	0	0	0	-0.132	0.031465	0.052357	-0.10304	0.019291	0.16739	-0.15304	-0.080077	0.051284
683	6.3738	-0.077955	-0.017363	0.16297	-0.14224	-0.26382	0.18404	-0.12708	-0.26158	0.21239	-0.046816	-0.15316	-0.008669	-0.046816	0.031938	-0.008669	0	0	0	-0.13202	0.031431	0.052364	-0.10307	0.019254	0.1674	-0.15304	-0.080112	0.051282
684	6.3832	-0.077995	-0.017391	0.16299	-0.14216	-0.26398	0.18419	-0.127	-0.26172	0.21254	-0.046816	-0.15316	-0.008669	-0.046816	0.031938	-0.008669	0	0	0	-0.13203	0.031399	0.052372	-0.1031	0.019217	0.16742	-0.15305	-0.080146	0.051279
685	6.3925	-0.078034	-0.017418	0.163	-0.14208	-0.26413	0.18433	-0.12693	-0.26186	0.21268	-0.046816	-0.15316	-0.008669	-0.046816	0.031938	-0.008669	0	0	0	-0.13204	0.031367	0.052379	-0.10313	0.019182	0.16743	-0.15305	-0.080179	0.051277
686	6.4019	-0.078071	-0.017444	0.16301	-0.142	-0.26428	0.18447	-0.12686	-0.26199	0.21282	-0.046816	-0.15316	-0.008669	-0.046816	0.031938	-0.008669	0	0	0	-0.13206	0.031336	0.052387	-0.10316	0.019148	0.16745	-0.15305	-0.080212	0.051275
687	6.4112	-0.078106	-0.017469	0.16303	-0.14193	-0.26442	0.1846	-0.1268	-0.26212	0.21296	-0.046816	-0.15316	-0.008669	-0.046816	0.031938	-0.008669	0	0	0	-0.13207	0.031306	0.052394	-0.10319	0.019116	0.16746	-0.15306	-0.080243	0.051273
688	6.4206	-0.078139	-0.017494	0.16304	-0.14186	-0.26455	0.18473	-0.12673	-0.26225	0.21309	-0.046816	-0.15316	-0.008669	-0.046816	0.031938	-0.008669	0	0	0	-0.13208	0.031278	0.052401	-0.10321	0.019085	0.16747	-0.15306	-0.080274	0.051271
689	6.4299	-0.078171	-0.017517	0.16305	-0.1418	-0.26469	0.18485	-0.12668	-0.26237	0.21322	-0.046816	-0.15316	-0.008669	-0.046816	0.031938	-0.008669	0	0	0	-0.13209	0.03125	0.052407	-0.10324	0.019056	0.16748	-0.15306	-0.080303	0.05127
690	6.4393	-0.078201	-0.017539	0.16306	-0.14174	-0.26481	0.18497	-0.12662	-0.26249	0.21334	-0.046816	-0.15316	-0.008669	-0.046816	0.031938	-0.008669	0	0	0	-0.13211	0.031224	0.052414	-0.10326	0.019028	0.1675	-0.15306	-0.080331	0.051269
691	6.4486	-0.078229	-0.017561	0.16307	-0.14169	-0.26493	0.18508	-0.12657	-0.2626	0.21345	-0.046816	-0.15316	-0.008669	-0.046816	0.031938	-0.008669	0	0	0	-0.13212	0.031198	0.05242	-0.10328	0.019003	0.16751	-0.15306	-0.080358	0.051268
692	6.4579	-0.078255	-0.017581	0.16308	-0.14164	-0.26505	0.18519	-0.12653	-0.26271	0.21356	-0.046816	-0.15316	-0.008669	-0.046816	0.031938	-0.008669	0	0	0	-0.13213	0.031175	0.052426	-0.1033	0.018979	0.16752	-0.15307	-0.080384	0.051267
693	6.4673	-0.078279	-0.0176	0.16309	-0.1416	-0.26516	0.18529	-0.12649	-0.26281	0.21366	-0.046816	-0.15316	-0.008669	-0.046816	0.031938	-0.008669	0	0	0	-0.13213	0.031152	0.052432	-0.10332	0.018957	0.16753	-0.15307	-0.080408	0.051267
694	6.4766	-0.078302	-0.017617	0.1631	-0.14156	-0.26526	0.18538	-0.12645	-0.26291	0.21376	-0.046816	-0.15316	-0.008669	-0.046816	0.031938	-0.008669	0	0	0	-0.13214	0.031131	0.052437	-0.10333	0.018938	0.16753	-0.15307	-0.080431	0.051267
695	6.486	-0.078322	-0.017633	0.16311	-0.14153	-0.26536	0.18547	-0.12642	-0.263	0.21385	-0.046816	-0.15316	-0.008669	-0.046816	0.031938	-0.008669	0	0	0	-0.13215	0.031111	0.052442	-0.10335	0.018921	0.16754	-0.15307	-0.080452	0.051267
696	6.4953	-0.078341	-0.017648	0.16312	-0.1415	-0.26545	0.18555	-0.1264	-0.26308	0.21393	-0.046816	-0.15316	-0.008669	-0.046816	0.031938	-0.008669	0	0	0	-0.13216	0.031093	0.052447	-0.10336	0.018906	0.16755	-0.15307	-0.080472	0.051268
697	6.5047	-0.078357	-0.017662	0.16312	-0.14148	-0.26553	0.18563	-0.12638	-0.26316	0.21401	-0.046816	-0.15316	-0.008669	-0.046816	0.031938	-0.008669	0	0	0	-0.13216	0.031077	0.052451	-0.10338	0.018893	0.16755	-0.15307	-0.08049	0.051268
698	6.514	-0.078372	-0.017675	0.16313	-0.14146	-0.26561	0.1857	-0.12636	-0.26323	0.21408	-0.046816	-0.15316	-0.008669	-0.046816	0.031938	-0.008669	0	0	0	-0.13217	0.031061	0.052456	-0.10339	0.01888	0.16756	-0.15307	-0.080508	0.051269
699	6.5234	-0.078386	-0.017688	0.16313	-0.14144	-0.26568	0.18577	-0.12634	-0.2633	0.21415	-0.046816	-0.15316	-0.008669	-0.046816	0.031938	-0.008669	0	0	0	-0.13217	0.031045	0.05246	-0.1034	0.018868	0.16756	-0.15307	-0.080525	0.051271
700	6.5327	-0.078398	-0.017702	0.16314	-0.14142	-0.26575	0.18584	-0.12633	-0.26337	0.21422	-0.046816	-0.15316	-0.008669	-0.046816	0.031938	-0.008669	0	0	0	-0.13218	0.031029	0.052465	-0.10341	0.018855	0.16757	-0.15307	-0.080542	0.051272
701	6.5421	-0.078409	-0.017715	0.16314	-0.1414	-0.26581	0.18591	-0.12631	-0.26343	0.21429	-0.046816	-0.15316	-0.008669	-0.046816	0.031938	-0.008669	0	0	0	-0.13219	0.031014	0.052469	-0.10342	0.018843	0.16757	-0.15307	-0.080559	0.051273
702	6.5514	-0.078419	-0.017729	0.16315	-0.14138	-0.26587	0.18597	-0.12629	-0.26348	0.21436	-0.046816	-0.15316	-0.008669	-0.046816	0.031938	-0.008669	0	0	0	-0.13219	0.030999	0.052474	-0.10343	0.01883	0.16758	-0.15307	-0.080576	0.051275
703	6.5607	-0.078428	-0.017742	0.16315	-0.14137	-0.26593	0.18604	-0.12628	-0.26353	0.21442	-0.046816	-0.15316	-0.008669	-0.046816	0.031938	-0.008669	0	0	0	-0.1322	0.030985	0.052479	-0.10344	0.018818	0.16759	-0.15307	-0.080592	0.051277
704	6.5701	-0.078435	-0.017756	0.16315	-0.14135	-0.26598	0.1861	-0.12626	-0.26358	0.21449	-0.046816	-0.15316	-0.008669	-0.046816	0.031938	-0.008669	0	0	0	-0.1322	0.03097	0.052483	-0.10345	0.018806	0.16759	-0.15307	-0.080607	0.051279
705	6.5794	-0.078441	-0.017769	0.16315	-0.14133	-0.26603	0.18616	-0.12624	-0.26362	0.21455	-0.046816	-0.15316	-0.008669	-0.046816	0.031938	-0.008669	0	0	0	-0.13221	0.030956	0.052488	-0.10346	0.018793	0.1676	-0.15307	-0.080623	0.051281
706	6.5888	-0.078446	-0.017783	0.16315	-0.14132	-0.26607	0.18622	-0.12623	-0.26366	0.21461	-0.046816	-0.15316	-0.008669	-0.046816	0.031938	-0.008669	0	0	0	-0.13221	0.030943	0.052493	-0.10347	0.018781	0.1676	-0.15307	-0.080637	0.051284
707	6.5981	-0.07845	-0.017796	0.16315	-0.1413	-0.26611	0.18628	-0.12621	-0.26369	0.21466	-0.046816	-0.15316	-0.008669	-0.046816	0.031938	-0.008669	0	0	0	-0.13222	0.030929	0.052497	-0.10347	0.018769	0.16761	-0.15307	-0.080652	0.051286
